<svg xmlns="http://www.w3.org/2000/svg" viewBox="0 0 72.08 75.13"><g data-name="Layer 2"><g data-name="Layer 1"><path d="M55.29 25.57a1 1 0 0 0 .7-.29 6.72 6.72 0 0 0 2-4.61A4.89 4.89 0 0 0 55.91 17a3 3 0 0 1-1.32-2.18 4.74 4.74 0 0 1 1.39-3 1 1 0 0 0-1.38-1.44 6.61 6.61 0 0 0-2 4.54 4.93 4.93 0 0 0 2.08 3.65A3 3 0 0 1 56 20.76a4.81 4.81 0 0 1-1.4 3.09 1 1 0 0 0 0 1.42A1 1 0 0 0 55.29 25.57zM44.55 72.92c-6.23-9.28-6.25-29.2-6-37.33a3.16 3.16 0 0 1 3.18-3H68.82a3.16 3.16 0 0 1 3.18 3c.28 8.14.26 28.05-6 37.33a5 5 0 0 1-4.21 2.21H48.76A5 5 0 0 1 44.55 72.92zM41.76 34.55a1.16 1.16 0 0 0-1.18 1.11c-.21 6.19-.44 27.1 5.63 36.15a3 3 0 0 0 2.55 1.32H61.82a3 3 0 0 0 2.55-1.32c6.06-9.05 5.84-29.95 5.63-36.15a1.16 1.16 0 0 0-1.18-1.11z"/><path d="M58.86,42.51a1,1,0,0,0,1-1c0-4.79-.12-8.57-1.59-10a2.21,2.21,0,0,0-1.55-.65,1,1,0,0,0-1,1,1,1,0,0,0,1,1h0s.06,0,.12.07c1,1,1,5.94,1,8.61A1,1,0,0,0,58.86,42.51Z"/><path d="M53.27 52.85V43.74a1 1 0 0 1 .63-.93L58.49 41a1 1 0 0 1 .75 0l4.59 1.85a1 1 0 0 1 .62.93v9.11a1 1 0 0 1-1 1H54.27A1 1 0 0 1 53.27 52.85zm9.18-8.44L58.86 43l-3.59 1.44v7.44h7.18zM1.57 31.59C-3.38 21.33 4.9 1.45 5.26.61A1 1 0 0 1 6.18 0H28.25a1 1 0 0 1 .92.61c.36.84 8.64 20.72 3.69 31-3.4 7.06-11.22 9.62-15.64 9.62S5 38.65 1.57 31.59zM6.85 2C5.51 5.41-.73 22.21 3.37 30.73c3.36 7 11.13 8.48 13.85 8.48s10.48-1.53 13.84-8.48C35.16 22.21 28.92 5.41 27.58 2z"/><path d="M3.22 12.56H30.45a1 1 0 0 0 0-2H3.22a1 1 0 0 0 0 2zM42.25 66.21a1 1 0 0 0 .12-2c-.4 0-9.82-1.37-10.93-10.87A8 8 0 0 1 33 47C35.36 44.23 39.51 44 39.56 44a1 1 0 1 0-.12-2c-.2 0-5.06.32-8 3.78a9.9 9.9 0 0 0-2 7.83C30.75 64.66 42 66.19 42.12 66.21zM17.22 74.7a1 1 0 0 0 1-1V40.21a1 1 0 0 0-2 0V73.7A1 1 0 0 0 17.22 74.7z"/><path d="M6.67,75.13H27.76a1,1,0,1,0,0-2H6.67a1,1,0,0,0,0,2Z"/></g></g></svg>